<svg width="52" height="52" viewBox="0 0 52 52" fill="none" xmlns="http://www.w3.org/2000/svg">
<path d="M26 0C11.6399 0 0 11.6399 0 26C0 40.3601 11.6415 52 26 52C40.3601 52 52 40.3601 52 26C52 11.6399 40.3601 0 26 0ZM29.3589 30.81C29.9 31.2796 30.3209 32.9355 30.3209 33.696V40.43H26.4778H22.6297C22.6297 40.43 22.6411 38.1469 22.6297 36.582C17.3647 37.7146 15.8958 33.696 15.8958 33.696C14.9337 31.772 13.9718 30.81 13.9718 30.81C12.0478 29.6676 13.9718 29.848 13.9718 29.848C15.8958 29.848 16.8577 31.772 16.8577 31.772C18.5461 34.6385 21.5508 34.177 22.6297 33.696C22.6297 32.734 23.0506 31.2796 23.5917 30.81C19.3895 30.3371 15.8925 27.924 15.8925 23.114C15.8925 18.304 16.8577 17.342 17.8197 16.38C17.6247 15.9055 16.8204 14.1537 17.849 11.57C17.849 11.57 19.7389 11.57 21.6629 14.456C22.6168 13.5021 25.5109 13.494 26.4745 13.494C27.4349 13.494 30.3306 13.5021 31.2829 14.456C33.2069 11.57 35.1016 11.57 35.1016 11.57C36.1302 14.1537 35.3259 15.9055 35.1309 16.38C36.0929 17.342 37.0549 18.304 37.0549 23.114C37.0565 27.924 33.5628 30.3371 29.3589 30.81Z" fill="#70B5E3"/>
</svg>
