<svg width="52" height="52" viewBox="0 0 52 52" fill="none" xmlns="http://www.w3.org/2000/svg">
<path fill-rule="evenodd" clip-rule="evenodd" d="M40.5921 38.2521V28.1017C40.5921 22.6633 37.6887 20.1327 33.8182 20.1327C30.6947 20.1327 29.2951 21.8513 28.5151 23.0568V20.5487H22.6304C22.7084 22.2101 22.6304 38.2521 22.6304 38.2521H28.5151V28.3651C28.5151 27.8373 28.5532 27.3087 28.7092 26.9308C29.1339 25.8735 30.1019 24.7789 31.7269 24.7789C33.8572 24.7789 34.7083 26.4021 34.7083 28.7811V38.2529H40.5921V38.2521ZM16.4311 18.1324C18.4825 18.1324 19.7609 16.7717 19.7609 15.0722C19.7227 13.3363 18.4825 12.0146 16.4701 12.0146C14.4577 12.0146 13.1413 13.3354 13.1413 15.0722C13.1413 16.7717 14.4187 18.1324 16.3939 18.1324H16.4311ZM26 52C11.6411 52 0 40.3589 0 26C0 11.6402 11.6411 0 26 0C40.3589 0 52 11.6402 52 26C52 40.3589 40.3589 52 26 52ZM19.3735 38.2521V20.5487H13.4897V38.2521H19.3735Z" fill="#9390B7"/>
</svg>
