<svg width="51" height="42" viewBox="0 0 51 42" fill="none" xmlns="http://www.w3.org/2000/svg">
<path d="M31.3908 3.84658C30.5213 1.329 30.7514 0.247678 31.5 0.0386139C33.1392 -0.41919 37.2643 3.30558 37.7721 5.29079H34.5L31.3908 3.84658Z" fill="#48465B"/>
<path fill-rule="evenodd" clip-rule="evenodd" d="M32.9241 29.7223C32.9241 29.7223 34.7227 29.6971 36.1948 28.6104L45.2379 26.5827C46.9883 26.1903 48.4978 25.0806 49.4046 23.5198C53.3652 16.7027 49.6033 7.96847 41.9616 6.23898L29.6998 3.46389C27.1699 0.446086 22.6394 -0.548653 19.0495 1.81014C14.3035 -0.901359 8.13563 1.61454 6.7543 6.96871C1.82434 7.6431 -1.17293 13.096 1.15915 17.7592L1.38475 18.2103C-1.59788 22.3505 0.483948 28.209 5.27511 29.5735C5.30688 31.8908 5.55757 41.0813 7.53558 41.8433C9.34255 42.5394 11.7673 38.2377 12.6742 36.4692C14.3433 37 16.2111 36.9795 18.0114 36.2381L19.3198 35.6992L19.626 35.9155C21.7991 37.4502 23.6341 37.6714 25.5 37.0538C25.6644 38.4138 27.2707 42.6351 29.4005 41.9188C31.8967 41.0792 32.9241 29.7223 32.9241 29.7223ZM37.2854 17.6236C39.2545 13.633 36.7353 9.04064 32.6917 8.27144C32.2315 8.23068 31.7533 8.24043 31.2611 8.30705C31.2563 8.37877 31.2509 8.4534 31.2448 8.53045C31.1567 9.6456 30.9248 11.2671 30.3153 11.8821C29.3481 12.858 27.861 12.9399 26.9939 12.0649C26.1267 11.19 26.2078 9.68955 27.175 8.71364C27.7671 8.11629 29.1794 7.75657 30.1859 7.56738C30.2614 7.55321 30.3345 7.53999 30.4049 7.5277C29.5334 2.6588 24.1303 0.148981 19.9968 2.53757L20.0013 2.54931L19.9267 2.57859C19.7978 2.65511 19.6701 2.73645 19.5439 2.82267C19.5865 2.87464 19.6305 2.9288 19.6755 2.9849C20.3954 3.8817 21.3792 5.27594 21.3792 6.19829C21.3792 7.65284 20.3858 8.832 19.1603 8.832C17.9349 8.832 16.9415 7.65284 16.9415 6.19829C16.9415 5.30025 17.7005 3.95485 18.2812 3.05682C18.3478 2.95391 18.412 2.85687 18.4725 2.76706C14.3355 0.429827 8.99861 2.64896 7.82023 7.28216C7.96462 7.28991 8.12776 7.30039 8.3036 7.31454C9.40881 7.40349 11.0159 7.63746 11.6254 8.25248C12.5926 9.22839 12.6737 10.7288 11.8066 11.6038C10.9394 12.4787 9.45237 12.3969 8.48516 11.421C7.89313 10.8236 7.53662 9.39861 7.34911 8.38297C7.32662 8.26114 7.30656 8.1452 7.28882 8.03728C2.87191 8.37324 0.106882 13.1703 2.14962 17.2549L2.18943 17.3345C2.21615 17.3124 2.24338 17.29 2.27109 17.2674C3.1599 16.541 4.54171 15.5484 5.45584 15.5484C6.89743 15.5484 8.06608 16.5508 8.06608 17.7872C8.06608 19.0237 6.89743 20.026 5.45584 20.026C4.58448 20.026 3.28818 19.292 2.39898 18.7114C-0.458834 22.4411 1.69049 27.948 6.35782 28.6664L7.71032 28.8746C7.73533 28.7096 7.76708 28.5156 7.80618 28.3038C7.99369 27.2881 8.3502 25.8631 8.94223 25.2658C9.90944 24.2899 11.3965 24.208 12.2636 25.083C13.1308 25.9579 13.0497 27.4583 12.0825 28.4343C11.4729 29.0493 9.86588 29.2832 8.76067 29.3722C8.58047 29.3867 8.41361 29.3973 8.26659 29.4051C8.62372 34.0083 13.3283 36.9576 17.5922 35.2017L18.9247 34.6529C18.832 34.5519 18.7296 34.438 18.6217 34.3144C17.9041 33.4915 16.9415 32.2319 16.9415 31.3955C16.9415 30.0622 17.9349 28.9813 19.1603 28.9813C20.3858 28.9813 21.3792 30.0622 21.3792 31.3955C21.3792 32.2065 20.6426 33.4154 20.0654 34.2382L19.9004 34.7429L20.2622 34.9984C24.5651 38.0372 30.2088 33.9754 29.5 28.7244C29.3201 28.7205 29.5776 28.7347 29.1218 28.698C28.0166 28.609 26.4095 28.3751 25.8 27.76C24.8328 26.7841 24.7517 25.2837 25.6188 24.4088C26.486 23.5338 27.973 23.6157 28.9402 24.5916C29.5323 25.1889 29.8888 26.6139 30.0763 27.6296C30.1906 28.2486 30.2421 28.7156 30.2458 28.7503C35.2374 29.9872 39.5975 25.0737 37.7885 20.186L37.2568 18.7496C37.2067 18.7952 37.1544 18.8422 37.1002 18.8903C36.2848 19.6144 35.0363 20.5857 34.2074 20.5857C32.8859 20.5857 31.8147 19.5834 31.8147 18.3469C31.8147 17.1105 32.8859 16.1081 34.2074 16.1081C35.0112 16.1081 36.2093 16.8513 37.0248 17.4337C37.1169 17.4995 37.2042 17.5632 37.2854 17.6236ZM18.2763 5.37815C18.1085 5.78344 18.0509 6.05692 18.0509 6.19829C18.0509 7.21203 18.7098 7.71259 19.1603 7.71259C19.6109 7.71259 20.2698 7.21203 20.2698 6.19829C20.2698 6.10687 20.2166 5.86432 20.0099 5.45784C19.8179 5.08041 19.5496 4.6689 19.2623 4.27483C19.1832 4.16644 19.104 4.06106 19.0261 3.95991C18.9806 4.03361 18.9347 4.10929 18.8889 4.18651C18.6553 4.58024 18.4351 4.99468 18.2763 5.37815ZM9.26964 10.6294C9.19202 10.5511 9.05705 10.343 8.90725 9.95385C8.76664 9.58855 8.64783 9.15732 8.55171 8.72794C8.53104 8.63559 8.51165 8.5444 8.49351 8.4552C8.62546 8.46814 8.76205 8.48326 8.90079 8.50093C9.36498 8.56002 9.82466 8.64404 10.2062 8.75861C10.6217 8.88337 10.8001 9.00282 10.8409 9.04402C11.4576 9.66628 11.3776 10.4535 11.0221 10.8122C10.6666 11.1709 9.88635 11.2517 9.26964 10.6294ZM5.45584 18.9066C5.31573 18.9066 5.04469 18.8485 4.64302 18.6792C4.26296 18.519 3.85221 18.2968 3.462 18.0611C3.38546 18.0149 3.31045 17.9686 3.23742 17.9226C3.33766 17.8441 3.4421 17.7641 3.54953 17.6844C3.94008 17.3945 4.34793 17.1237 4.72199 16.93C5.12485 16.7214 5.36524 16.6678 5.45584 16.6678C6.46054 16.6678 6.95665 17.3326 6.95665 17.7872C6.95665 18.2418 6.46054 18.9066 5.45584 18.9066ZM9.36432 26.7329C9.51412 26.3437 9.64909 26.1356 9.72671 26.0573C10.3434 25.435 11.1236 25.5158 11.4791 25.8745C11.8347 26.2332 11.9147 27.0205 11.298 27.6427C11.2571 27.6839 11.0787 27.8034 10.6633 27.9281C10.2817 28.0427 9.82205 28.1267 9.35786 28.1858C9.21911 28.2035 9.08253 28.2186 8.95058 28.2315C8.96872 28.1423 8.9881 28.0511 9.00878 27.9588C9.1049 27.5294 9.22371 27.0982 9.36432 26.7329ZM28.1557 25.3831C28.2334 25.4614 28.3683 25.6695 28.5181 26.0587C28.6587 26.424 28.7776 26.8552 28.8737 27.2846C28.8943 27.3769 28.9137 27.4681 28.9319 27.5573C28.7999 27.5444 28.6633 27.5293 28.5246 27.5116C28.0604 27.4525 27.6007 27.3685 27.2192 27.2539C26.8037 27.1291 26.6253 27.0097 26.5845 26.9685C25.9678 26.3462 26.0478 25.559 26.4033 25.2003C26.7588 24.8416 27.539 24.7608 28.1557 25.3831ZM28.6291 9.13953C28.2434 9.29068 28.0371 9.42687 27.9595 9.50518C27.3428 10.1274 27.4228 10.9147 27.7783 11.2734C28.1339 11.6321 28.9141 11.7128 29.5308 11.0906C29.5716 11.0494 29.69 10.8694 29.8137 10.4502C29.9272 10.0652 30.0105 9.60139 30.069 9.13302C30.0865 8.99302 30.1015 8.85521 30.1144 8.72207C30.026 8.74037 29.9356 8.75994 29.844 8.7808C29.4185 8.87778 28.9911 8.99766 28.6291 9.13953ZM34.2074 17.2275C34.2977 17.2275 34.5201 17.2732 34.8844 17.4407C35.2244 17.597 35.5953 17.8155 35.9508 18.0498C36.0313 18.1028 36.1099 18.156 36.1861 18.2085C36.083 18.2972 35.9748 18.388 35.8631 18.4784C35.5065 18.7672 35.1376 19.034 34.8025 19.2233C34.636 19.3173 34.4946 19.3826 34.3807 19.4227C34.3249 19.4424 34.2817 19.4538 34.2504 19.4601C34.2222 19.4658 34.2073 19.4663 34.2073 19.4663C33.4184 19.4662 32.9241 18.8871 32.9241 18.3469C32.9241 17.8067 33.4184 17.2275 34.2074 17.2275ZM20.2698 31.3955C20.2698 31.4866 20.2245 31.711 20.0585 32.0786C19.9036 32.4217 19.687 32.7959 19.4548 33.1546C19.4022 33.2358 19.3496 33.3151 19.2975 33.3919C19.2096 33.288 19.1196 33.1788 19.03 33.0661C18.7438 32.7063 18.4794 32.334 18.2918 31.9959C18.1986 31.8279 18.1338 31.6852 18.0941 31.5704C18.0746 31.5141 18.0633 31.4705 18.0571 31.4389C18.0515 31.4104 18.0509 31.3954 18.0509 31.3954C18.0509 30.5992 18.6249 30.1007 19.1603 30.1007C19.6957 30.1007 20.2698 30.5994 20.2698 31.3955ZM42.9903 15.8927C44.0625 15.8927 44.9318 15.0156 44.9318 13.9337C44.9318 12.8518 44.0625 11.9747 42.9903 11.9747C41.918 11.9747 41.0488 12.8518 41.0488 13.9337C41.0488 15.0156 41.918 15.8927 42.9903 15.8927Z" fill="#48465B"/>
</svg>
