<?xml version="1.0" encoding="UTF-8"?>
<!-- Created with Inkscape (http://www.inkscape.org/) -->
<svg width="167.84mm" height="180.04mm" version="1.1" viewBox="0 0 167.84 180.04" xmlns="http://www.w3.org/2000/svg">
 <path d="m87.186 0a87.186 90.021 0 0 0-87.186 90.022 87.186 90.021 0 0 0 87.186 90.021 87.186 90.021 0 0 0 69.93-36.34 70.174 70.174 0 0 1-48.665 19.683 70.174 70.174 0 0 1-70.174-70.175 70.174 70.174 0 0 1 70.174-70.174 70.174 70.174 0 0 1 59.393 32.812 87.186 90.021 0 0 0-80.658-55.85z" stroke-linejoin="round" stroke-width="1.1012" style="paint-order:stroke fill markers"/>
</svg>
